HIERARCHY
ROOT Hips
{
	OFFSET 0.00000 0.00000 0.00000
	CHANNELS 6 Xposition Yposition Zposition Zrotation Yrotation Xrotation 
	JOINT LHipJoint
	{
		OFFSET 0 0 0
		CHANNELS 3 Zrotation Yrotation Xrotation
		JOINT LeftUpLeg
		{
			OFFSET 1.33213 -1.58186 0.78596
			CHANNELS 3 Zrotation Yrotation Xrotation
			JOINT LeftLeg
			{
				OFFSET 2.29717 -6.31144 0.00000
				CHANNELS 3 Zrotation Yrotation Xrotation
				JOINT LeftFoot
				{
					OFFSET 2.38430 -6.55082 0.00000
					CHANNELS 3 Zrotation Yrotation Xrotation
					JOINT LeftToeBase
					{
						OFFSET 0.11863 -0.32594 1.77568
						CHANNELS 3 Zrotation Yrotation Xrotation
						End Site
						{
							OFFSET 0.00000 -0.00000 0.91633
						}
					}
				}
			}
		}
	}
	JOINT RHipJoint
	{
		OFFSET 0 0 0
		CHANNELS 3 Zrotation Yrotation Xrotation
		JOINT RightUpLeg
		{
			OFFSET -1.41575 -1.58186 0.78596
			CHANNELS 3 Zrotation Yrotation Xrotation
			JOINT RightLeg
			{
				OFFSET -2.42012 -6.64922 0.00000
				CHANNELS 3 Zrotation Yrotation Xrotation
				JOINT RightFoot
				{
					OFFSET -2.47254 -6.79327 0.00000
					CHANNELS 3 Zrotation Yrotation Xrotation
					JOINT RightToeBase
					{
						OFFSET -0.15219 -0.41813 1.93430
						CHANNELS 3 Zrotation Yrotation Xrotation
						End Site
						{
							OFFSET -0.00000 -0.00000 0.99984
						}
					}
				}
			}
		}
	}
	JOINT LowerBack
	{
		OFFSET 0 0 0
		CHANNELS 3 Zrotation Yrotation Xrotation
		JOINT Spine
		{
			OFFSET -0.04717 2.09389 -0.14516
			CHANNELS 3 Zrotation Yrotation Xrotation
			JOINT Spine1
			{
				OFFSET 0.02825 2.09433 -0.11325
				CHANNELS 3 Zrotation Yrotation Xrotation
				JOINT Neck
				{
					OFFSET 0 0 0
					CHANNELS 3 Zrotation Yrotation Xrotation
					JOINT Neck1
					{
						OFFSET -0.01210 1.39029 0.12448
						CHANNELS 3 Zrotation Yrotation Xrotation
						JOINT Head
						{
							OFFSET 0.09492 1.38365 0.14559
							CHANNELS 3 Zrotation Yrotation Xrotation
							End Site
							{
								OFFSET 0.03402 1.40343 0.03708
							}
						}
					}
				}
				JOINT LeftShoulder
				{
					OFFSET 0 0 0
					CHANNELS 3 Zrotation Yrotation Xrotation
					JOINT LeftArm
					{
						OFFSET 2.83352 1.10671 -0.20481
						CHANNELS 3 Zrotation Yrotation Xrotation
						JOINT LeftForeArm
						{
							OFFSET 4.77195 -0.00000 -0.00000
							CHANNELS 3 Zrotation Yrotation Xrotation
							JOINT LeftHand
							{
								OFFSET 2.98444 -0.00000 0.00000
								CHANNELS 3 Zrotation Yrotation Xrotation
								JOINT LeftFingerBase
								{
									OFFSET 0 0 0
									CHANNELS 3 Zrotation Yrotation Xrotation
									JOINT LeftHandIndex1
									{
										OFFSET 0.99228 -0.00000 0.00000
										CHANNELS 3 Zrotation Yrotation Xrotation
										End Site
										{
											OFFSET 0.80001 -0.00000 0.00000
										}
									}
								}
								JOINT LThumb
								{
									OFFSET 0 0 0
									CHANNELS 3 Zrotation Yrotation Xrotation
									End Site
									{
										OFFSET 0.81222 -0.00000 0.81222
									}
								}
							}
						}
					}
				}
				JOINT RightShoulder
				{
					OFFSET 0 0 0
					CHANNELS 3 Zrotation Yrotation Xrotation
					JOINT RightArm
					{
						OFFSET -3.23760 1.11106 0.06723
						CHANNELS 3 Zrotation Yrotation Xrotation
						JOINT RightForeArm
						{
							OFFSET -4.62052 -0.00000 0.00000
							CHANNELS 3 Zrotation Yrotation Xrotation
							JOINT RightHand
							{
								OFFSET -2.95332 -0.00000 0.00000
								CHANNELS 3 Zrotation Yrotation Xrotation
								JOINT RightFingerBase
								{
									OFFSET 0 0 0
									CHANNELS 3 Zrotation Yrotation Xrotation
									JOINT RightHandIndex1
									{
										OFFSET -0.99096 -0.00000 0.00000
										CHANNELS 3 Zrotation Yrotation Xrotation
										End Site
										{
											OFFSET -0.79893 -0.00000 0.00000
										}
									}
								}
								JOINT RThumb
								{
									OFFSET 0 0 0
									CHANNELS 3 Zrotation Yrotation Xrotation
									End Site
									{
										OFFSET -0.81113 -0.00000 0.81113
									}
								}
							}
						}
					}
				}
			}
		}
	}
}
MOTION
Frames: 14
Frame Time: .0083333
-2.2992 8.0463 12.0253 -189.9630 -2.5173 -109.6630 0.0000 0.0000 0.0000 0.0579 -22.9644 -87.4248 32.5893 15.6682 129.5890 0.4044 -11.0226 20.5915 2.2708 -9.4087 -27.0824 0.0000 0.0000 0.0000 13.2267 14.7218 -25.1962 -10.4186 -17.6386 60.8784 179.4888 16.9517 -16.4146 -8.7240 16.6268 -55.1305 -2.7224 -1.1363 17.6552 -3.4219 -2.8629 5.4201 -1.4656 -1.6696 -4.1337 1.5897 -1.9386 3.0470 13.2701 -1.3582 -30.6102 4.8966 -3.7421 -10.1497 -0.0000 0.0000 0.0000 -64.1249 -55.2421 42.3996 57.3258 -55.5542 -32.1257 -0.0000 -0.0000 28.2024 55.8540 -3.2157 -4.7282 -7.1250 0.0000 -0.0000 21.3965 24.2130 -11.5311 -0.0000 0.0000 0.0000 71.6289 60.0079 20.3349 -41.1074 48.7125 -19.2673 0.0000 0.0000 30.8944 -50.7661 1.9107 -2.3382 7.1250 -0.0000 -0.0000 -18.2537 -26.8148 -8.4642
-2.3504 8.1217 11.8745 -189.3310 -2.1580 -109.5470 0.0000 0.0000 0.0000 -0.3800 -22.7947 -86.0820 32.2700 15.9170 128.4158 0.1455 -11.9240 18.7991 2.0441 -8.9574 -25.6621 0.0000 0.0000 0.0000 12.7289 14.4801 -25.9646 -10.4215 -17.6402 60.8881 179.5541 9.9227 -12.8684 -5.9326 14.3627 -44.7105 -2.7885 -1.2064 17.8924 -3.0714 -2.9393 5.2544 -1.0304 -1.6941 -4.4140 1.0512 -1.6345 2.7942 13.2633 -1.0700 -30.5257 4.9552 -3.5661 -10.0750 -0.0000 0.0000 0.0000 -63.2008 -58.4593 39.6338 55.8990 -55.1142 -30.9522 -0.0000 -0.0000 28.6285 54.0620 -1.8022 -2.4842 -7.1250 0.0000 -0.0000 20.6416 26.7101 -9.7670 -0.0000 0.0000 0.0000 72.8397 60.0373 22.7781 -40.2312 48.2063 -18.6114 0.0000 0.0000 31.2515 -51.5956 2.1708 -2.7357 7.1250 -0.0000 -0.0000 -18.7748 -26.3545 -8.9479
-2.3880 8.1943 11.7434 -188.6060 -1.6648 -108.6990 0.0000 0.0000 0.0000 -0.4393 -22.3564 -85.8809 31.8917 16.1983 127.0482 -0.2197 -13.6106 16.4728 2.0934 -9.0579 -25.9765 0.0000 0.0000 0.0000 11.9292 14.5919 -27.8711 -10.5452 -17.7052 61.2956 179.8503 2.8774 -6.8808 -1.0209 6.4279 -18.0312 -3.0311 -1.1785 17.3391 -2.7353 -2.8466 4.9012 -0.5691 -1.6222 -4.4667 0.6511 -1.4132 2.6423 13.1256 -0.8909 -30.5562 4.9624 -3.4464 -10.0616 0.0000 0.0000 0.0000 -62.0212 -61.9870 36.6966 53.1933 -54.2049 -28.7448 -0.0000 -0.0000 28.6002 52.8683 -0.2167 -0.2863 -7.1250 0.0000 -0.0000 20.3004 29.2776 -8.2583 0.0000 0.0000 0.0000 73.8651 59.9149 24.7599 -39.3402 47.6741 -17.9499 0.0000 0.0000 31.7806 -52.4593 2.4238 -3.1500 7.1250 -0.0000 -0.0000 -19.3126 -25.8869 -9.4599
-2.4338 8.2650 11.5980 -187.6600 -1.1743 -108.6620 0.0000 0.0000 0.0000 -1.0521 -21.8234 -84.3762 31.3822 16.5554 125.2413 -0.4914 -14.5841 13.7594 2.8486 -10.4458 -30.4329 0.0000 0.0000 0.0000 11.4236 14.5208 -28.9627 -10.7294 -17.8001 61.8998 -179.9907 -1.9163 0.2154 -0.7750 -5.6208 15.6881 -3.1226 -1.0227 17.6036 -2.4432 -2.6354 4.7386 -0.2413 -1.5039 -4.7635 0.3695 -1.2811 2.4029 12.8835 -0.8420 -30.3667 4.8975 -3.3551 -9.9423 0.0000 0.0000 0.0000 -60.2061 -65.5888 33.2365 49.6631 -52.8587 -25.9054 -0.0000 -0.0000 27.8867 51.4507 0.6849 0.8595 -7.1250 0.0000 -0.0000 19.5207 30.6940 -7.1991 0.0000 0.0000 0.0000 74.8057 59.7018 26.5092 -38.4959 47.1531 -17.3283 0.0000 0.0000 32.0356 -53.1857 2.9955 -3.9938 7.1250 -0.0000 -0.0000 -19.6457 -24.9197 -10.1178
-2.4864 8.3383 11.4402 -186.7420 -0.8859 -109.1460 0.0000 0.0000 0.0000 -1.8745 -21.4797 -82.0145 30.7331 16.9764 122.9914 -0.5973 -15.0145 12.5287 2.4368 -9.7220 -28.0811 0.0000 0.0000 0.0000 11.2892 14.2379 -29.5612 -11.0119 -17.9409 62.8203 179.9748 -3.3140 3.4222 -0.9781 -6.2956 17.6446 -2.9663 -0.9201 18.3837 -2.1229 -2.4953 4.7507 0.0033 -1.4321 -5.1584 -0.0068 -1.1424 2.0222 12.7106 -0.7897 -30.0466 4.8614 -3.2488 -9.7459 0.0000 0.0000 0.0000 -57.2936 -69.0419 28.5969 45.6593 -51.0874 -22.7506 -0.0000 -0.0000 27.2273 49.6603 1.0418 1.2265 -7.1250 0.0000 -0.0000 18.2504 31.2366 -6.4322 0.0000 0.0000 0.0000 75.6638 59.6883 28.3176 -37.6286 46.6004 -16.6952 0.0000 0.0000 31.9092 -53.6602 3.6032 -4.8830 7.1250 -0.0000 -0.0000 -19.7831 -23.9041 -10.6974
-2.5387 8.4118 11.2796 -185.8790 -0.6631 -110.0320 0.0000 0.0000 0.0000 -2.9575 -21.1906 -79.0826 29.9710 17.4261 120.4149 -0.7635 -15.9443 10.9395 2.3023 -9.4692 -27.2744 0.0000 0.0000 0.0000 11.3351 13.8982 -29.8608 -11.3953 -18.1232 64.0589 179.8877 -4.5236 6.3092 -1.4797 -7.6860 21.7642 -2.8218 -0.8335 19.6099 -1.7546 -2.4148 4.8968 0.3297 -1.3994 -5.6406 -0.5538 -0.9336 1.7061 12.6297 -0.6333 -29.8808 4.8988 -3.1094 -9.6256 -0.0000 -0.0000 0.0000 -52.3835 -72.2784 21.9881 41.6245 -49.0035 -19.6567 -0.0000 -0.0000 26.5950 47.4312 1.2001 1.3063 -7.1250 0.0000 -0.0000 16.5592 31.4631 -5.6927 -0.0000 -0.0000 0.0000 76.2954 59.8927 30.1810 -36.7512 46.0228 -16.0607 0.0000 0.0000 31.7842 -54.0447 3.8513 -5.2904 7.1250 -0.0000 -0.0000 -19.9663 -23.4558 -11.0313
-2.5782 8.4943 11.1181 -185.0930 -0.2908 -110.1590 0.0000 0.0000 0.0000 -3.8635 -20.8488 -77.1863 29.1243 17.8737 117.6228 -0.8729 -16.5689 9.5608 2.3818 -9.6197 -27.7538 0.0000 0.0000 0.0000 11.0531 13.8794 -31.2813 -11.9348 -18.3630 65.7821 179.8767 -4.7440 6.6109 -1.3960 -7.4746 21.1292 -3.0542 -0.7583 20.0541 -1.3573 -2.3551 4.8656 0.8859 -1.3625 -5.8827 -1.1795 -0.6508 1.5889 12.5657 -0.3634 -29.9504 4.9742 -2.9396 -9.6409 0.0000 0.0000 0.0000 -44.9211 -74.9002 12.9673 38.0226 -46.8537 -16.9821 -0.0000 -0.0000 26.1989 45.0913 1.6248 1.6293 -7.1250 0.0000 -0.0000 14.8137 32.0371 -4.8415 0.0000 0.0000 0.0000 76.6397 60.1770 32.0732 -35.7547 45.3436 -15.3478 0.0000 0.0000 31.8129 -54.6230 3.8028 -5.3362 7.1250 -0.0000 -0.0000 -20.3714 -23.4446 -11.2912
-2.6090 8.5694 10.9644 -184.1380 -0.1512 -110.9880 0.0000 0.0000 0.0000 -4.7716 -20.0338 -74.4976 28.3326 18.2465 115.0694 -0.7987 -15.9751 9.7211 2.7222 -10.2312 -29.7286 0.0000 0.0000 0.0000 11.3123 13.9211 -32.1014 -12.6410 -18.6487 68.0067 179.9695 -5.2105 4.5568 -0.8287 -5.8077 16.2276 -3.0493 -0.6249 21.3896 -0.9498 -2.2407 4.9526 1.3331 -1.3089 -6.4758 -1.7099 -0.3920 1.5392 12.5020 -0.1039 -29.9792 5.0318 -2.7767 -9.6573 -0.0000 0.0000 0.0000 -35.3567 -76.7413 2.1361 34.9275 -44.7603 -14.7623 -0.0000 -0.0000 26.0834 43.4294 1.9120 1.8090 -7.1250 0.0000 -0.0000 13.5478 32.4023 -4.2831 -0.0000 0.0000 0.0000 77.0544 60.3692 34.0116 -34.6975 44.5949 -14.6005 0.0000 0.0000 31.8954 -55.4987 3.8667 -5.6036 7.1250 -0.0000 -0.0000 -20.9362 -23.2011 -11.7766
-2.6366 8.6383 10.8173 -183.0650 -0.1035 -111.6220 0.0000 0.0000 0.0000 -5.4334 -18.8871 -72.0977 27.6553 18.5326 112.9228 -0.7408 -15.4676 9.6857 2.6771 -10.1530 -29.4736 0.0000 0.0000 0.0000 11.6388 14.2539 -33.4317 -13.5157 -18.9605 70.7197 -179.9353 -5.8091 1.7877 -0.6646 -5.2138 14.5194 -2.9008 -0.5120 22.4585 -0.5450 -2.1014 5.0372 1.6822 -1.2459 -6.9351 -2.3430 -3.5665 1.3344 14.0537 0.6008 -29.0800 5.0825 0.6135 -9.3027 -0.0000 -0.0000 0.0000 -23.2807 -77.7750 -10.7076 32.2210 -42.7227 -12.8905 -0.0000 -0.0000 25.7353 42.4073 2.0558 1.8766 -7.1250 0.0000 -0.0000 12.7550 32.5752 -3.9664 -0.0000 -0.0000 0.0000 77.7970 60.5236 36.0882 -33.6904 43.8541 -13.8982 0.0000 0.0000 32.2411 -56.4846 4.1181 -6.1886 7.1250 -0.0000 -0.0000 -21.5012 -22.6146 -12.4586
-2.6579 8.6994 10.6965 -182.1400 0.1419 -111.3830 0.0000 0.0000 0.0000 -5.9110 -17.7981 -71.0130 27.1064 18.7434 111.2053 -0.7286 -15.2595 9.1667 2.5126 -9.8608 -28.5270 0.0000 0.0000 0.0000 11.3958 14.9417 -36.2143 -14.6218 -19.2919 74.0948 -179.9087 -5.3851 -1.3265 -0.2451 -3.1861 8.7974 -3.0121 -0.4276 22.5044 -0.2130 -1.9829 4.9769 2.0759 -1.1797 -7.0137 -2.8498 -3.3826 1.0532 14.0324 0.8026 -29.0249 5.1453 0.7743 -9.2404 -0.0000 0.0000 0.0000 -10.9020 -77.9452 -23.4136 30.0268 -40.9163 -11.4272 -0.0000 -0.0000 25.2256 41.6811 2.3370 2.0794 -7.1250 0.0000 -0.0000 12.2163 32.9294 -3.6850 -0.0000 0.0000 0.0000 78.7278 60.7037 38.0838 -32.6298 43.0435 -13.1687 0.0000 0.0000 32.8995 -57.0684 4.2436 -6.5174 7.1250 -0.0000 -0.0000 -21.8375 -22.2937 -12.8601
-2.6771 8.7617 10.5682 -181.1930 0.2859 -111.3300 0.0000 0.0000 0.0000 -6.3250 -16.6740 -69.7430 26.5637 18.9341 109.5247 -0.6311 -14.4611 9.6291 2.9298 -10.5806 -30.8781 0.0000 0.0000 0.0000 11.2754 15.6779 -38.9660 -15.8487 -19.5817 77.7805 -179.8929 -5.8156 -2.6735 -0.2123 -2.9661 8.1844 -2.9965 -0.3226 22.8015 0.1069 -1.8296 4.9540 2.3826 -1.1016 -7.1902 -3.2961 -3.2231 0.8853 14.0043 0.9765 -29.0177 5.2016 0.9093 -9.2168 0.0000 0.0000 0.0000 -0.1409 -77.5161 -34.2788 28.1377 -39.2427 -10.2107 -0.0000 -0.0000 24.9962 41.3589 2.3726 2.0872 -7.1250 0.0000 -0.0000 11.9620 32.9683 -3.5939 0.0000 0.0000 0.0000 79.7206 60.8386 39.9586 -31.7115 42.3159 -12.5462 0.0000 0.0000 33.4192 -57.1421 4.3993 -6.7729 7.1250 -0.0000 -0.0000 -21.8301 -22.0166 -13.0060
-2.6917 8.8178 10.4589 -180.3430 0.4003 -110.2580 0.0000 0.0000 0.0000 -6.2046 -15.8905 -70.0007 26.0615 19.0953 107.9835 -0.6234 -14.2589 9.0489 3.1756 -10.9740 -32.1923 0.0000 0.0000 0.0000 10.7162 16.7202 -43.2919 -17.2712 -19.8205 81.9986 -179.9130 -5.8113 -4.8350 -0.0103 0.6553 -1.8007 -3.3062 -1.0966 21.8788 0.3833 -1.5076 4.7549 2.6832 -0.4215 -6.8986 -3.7457 -3.0409 0.7536 13.9074 1.1443 -28.9490 5.2333 1.0379 -9.1788 0.0000 -0.0000 0.0000 9.2459 -76.5046 -43.5380 26.4947 -37.6931 -9.1885 -0.0000 -0.0000 24.7923 41.1405 2.2230 1.9408 -7.1250 0.0000 -0.0000 11.7638 32.7687 -3.5900 0.0000 -0.0000 0.0000 80.8109 60.9530 41.8675 -31.0097 41.7433 -12.0763 0.0000 0.0000 33.7313 -57.3580 4.5965 -7.1310 7.1250 -0.0000 -0.0000 -21.8990 -21.6386 -13.2600
-2.7048 8.8695 10.3343 -179.7150 0.5677 -109.6760 0.0000 0.0000 0.0000 -6.4465 -15.3102 -69.3762 25.4877 19.2621 106.2369 -0.5907 -13.9043 8.8741 3.3328 -11.2152 -33.0090 0.0000 0.0000 0.0000 10.1281 17.5361 -47.0993 -18.7561 -19.9629 86.3609 -179.9491 -5.7521 -6.4975 -0.0900 1.9347 -5.3253 -3.4173 -1.0272 21.3577 0.6817 -1.4316 4.7061 3.0397 -0.3987 -6.6729 -4.0891 -2.8705 0.6277 13.7419 1.2838 -28.8591 5.2227 1.1455 -9.1342 -0.0000 0.0000 0.0000 15.0076 -75.6424 -49.8041 25.5263 -36.7371 -8.6028 -0.0000 -0.0000 25.1190 40.5141 2.2275 1.9022 -7.1250 0.0000 -0.0000 11.2601 32.7612 -3.4330 -0.0000 0.0000 0.0000 81.8104 61.0860 43.4524 -30.2194 41.0807 -11.5535 0.0000 0.0000 33.9918 -57.9894 4.8970 -7.7760 7.1250 -0.0000 -0.0000 -22.1934 -20.9867 -13.8287
-2.7184 8.9089 10.2265 -179.1530 0.6084 -108.7570 0.0000 0.0000 0.0000 -6.4042 -14.9746 -69.3495 24.9556 19.4007 104.6296 -0.5591 -13.4658 8.2925 3.2561 -11.0985 -32.6129 0.0000 0.0000 0.0000 9.3480 18.4299 -51.6554 -20.3480 -19.9971 91.0177 -179.9144 -6.8573 -7.2831 -0.0713 1.7228 -4.7403 -3.3991 -0.9954 20.4002 1.0100 -1.3829 4.5730 3.3520 -0.4013 -6.3106 -4.5389 -2.7249 0.5757 13.7118 1.4126 -28.7958 5.2836 1.2442 -9.1110 0.0000 -0.0000 0.0000 17.7624 -75.1748 -53.7479 24.9463 -36.1491 -8.2582 -0.0000 -0.0000 26.0056 39.6814 2.1941 1.8193 -7.1250 0.0000 -0.0000 10.5849 32.7010 -3.2364 0.0000 -0.0000 0.0000 82.8379 61.1961 44.8556 -29.3648 40.3427 -10.9961 0.0000 0.0000 34.2402 -58.8051 5.3794 -8.8014 7.1250 -0.0000 -0.0000 -22.5283 -19.9514 -14.6530
